<mxfile host="app.diagrams.net" modified="2021-11-21T23:09:43.677Z" agent="5.0 (Windows NT 10.0; Win64; x64) AppleWebKit/537.36 (KHTML, like Gecko) Chrome/96.0.4664.45 Safari/537.36" etag="9uqs8efPO1QajJ8slHXY" version="14.8.5" type="github">
  <diagram id="2KxmQ6Eoy270Lg6M0vJ2" name="Page-1">
    <mxGraphModel dx="782" dy="436" grid="1" gridSize="10" guides="1" tooltips="1" connect="1" arrows="1" fold="1" page="1" pageScale="1" pageWidth="850" pageHeight="1100" math="0" shadow="0">
      <root>
        <mxCell id="0" />
        <mxCell id="1" parent="0" />
        <mxCell id="EtCovtEoipkpCKzj9w8A-5" value="" style="rounded=0;whiteSpace=wrap;html=1;" vertex="1" parent="1">
          <mxGeometry x="80" y="170" width="390" height="660" as="geometry" />
        </mxCell>
        <mxCell id="EtCovtEoipkpCKzj9w8A-1" value="" style="verticalLabelPosition=bottom;verticalAlign=top;html=1;shadow=0;dashed=0;strokeWidth=1;shape=mxgraph.android.phone2;strokeColor=#c0c0c0;" vertex="1" parent="1">
          <mxGeometry x="70" y="100" width="410.26" height="800" as="geometry" />
        </mxCell>
        <mxCell id="EtCovtEoipkpCKzj9w8A-11" value="" style="strokeWidth=2;html=1;shape=mxgraph.flowchart.start_2;whiteSpace=wrap;fillColor=#1A1A1A;" vertex="1" parent="1">
          <mxGeometry x="170.13" y="270" width="210" height="210" as="geometry" />
        </mxCell>
        <mxCell id="EtCovtEoipkpCKzj9w8A-13" value="" style="strokeWidth=2;html=1;shape=mxgraph.flowchart.start_2;whiteSpace=wrap;" vertex="1" parent="1">
          <mxGeometry x="200.13" y="300" width="150" height="150" as="geometry" />
        </mxCell>
        <mxCell id="EtCovtEoipkpCKzj9w8A-14" value="" style="endArrow=none;html=1;exitX=0.5;exitY=0;exitDx=0;exitDy=0;exitPerimeter=0;fillColor=#f8cecc;strokeColor=#b85450;strokeWidth=7;" edge="1" parent="1" source="EtCovtEoipkpCKzj9w8A-13">
          <mxGeometry width="50" height="50" relative="1" as="geometry">
            <mxPoint x="260" y="310" as="sourcePoint" />
            <mxPoint x="275" y="260" as="targetPoint" />
          </mxGeometry>
        </mxCell>
        <mxCell id="EtCovtEoipkpCKzj9w8A-15" value="" style="endArrow=none;html=1;exitX=0.5;exitY=0;exitDx=0;exitDy=0;exitPerimeter=0;fillColor=#dae8fc;strokeColor=#6c8ebf;strokeWidth=7;" edge="1" parent="1">
          <mxGeometry width="50" height="50" relative="1" as="geometry">
            <mxPoint x="275.12" y="300" as="sourcePoint" />
            <mxPoint x="275" y="270" as="targetPoint" />
          </mxGeometry>
        </mxCell>
        <mxCell id="EtCovtEoipkpCKzj9w8A-21" value="" style="endArrow=none;html=1;exitX=0.5;exitY=0;exitDx=0;exitDy=0;exitPerimeter=0;fillColor=#fff2cc;strokeColor=#d6b656;strokeWidth=7;" edge="1" parent="1">
          <mxGeometry width="50" height="50" relative="1" as="geometry">
            <mxPoint x="275.17" y="300" as="sourcePoint" />
            <mxPoint x="275.05000000000007" y="270" as="targetPoint" />
          </mxGeometry>
        </mxCell>
        <mxCell id="EtCovtEoipkpCKzj9w8A-22" value="" style="endArrow=none;html=1;exitX=0.5;exitY=0;exitDx=0;exitDy=0;exitPerimeter=0;fillColor=#d5e8d4;strokeColor=#82b366;strokeWidth=7;" edge="1" parent="1">
          <mxGeometry width="50" height="50" relative="1" as="geometry">
            <mxPoint x="275.1700000000001" y="300" as="sourcePoint" />
            <mxPoint x="275.0500000000001" y="270" as="targetPoint" />
          </mxGeometry>
        </mxCell>
        <mxCell id="EtCovtEoipkpCKzj9w8A-24" value="Daily Progress" style="text;strokeColor=none;fillColor=none;html=1;fontSize=24;fontStyle=1;verticalAlign=middle;align=center;" vertex="1" parent="1">
          <mxGeometry x="182.63" y="220" width="185" height="30" as="geometry" />
        </mxCell>
        <mxCell id="EtCovtEoipkpCKzj9w8A-26" value="Bank" style="swimlane;fontStyle=1;childLayout=stackLayout;horizontal=1;startSize=26;horizontalStack=0;resizeParent=1;resizeParentMax=0;resizeLast=0;collapsible=1;marginBottom=0;fillColor=#FFFFFF;fontSize=14;" vertex="1" parent="1">
          <mxGeometry x="120" y="540" width="310" height="78" as="geometry" />
        </mxCell>
        <mxCell id="EtCovtEoipkpCKzj9w8A-27" value="Digital Assets" style="text;strokeColor=none;fillColor=none;align=left;verticalAlign=top;spacingLeft=4;spacingRight=4;overflow=hidden;rotatable=0;points=[[0,0.5],[1,0.5]];portConstraint=eastwest;" vertex="1" parent="EtCovtEoipkpCKzj9w8A-26">
          <mxGeometry y="26" width="310" height="26" as="geometry" />
        </mxCell>
        <mxCell id="EtCovtEoipkpCKzj9w8A-28" value="Traditional Assets" style="text;strokeColor=none;fillColor=none;align=left;verticalAlign=top;spacingLeft=4;spacingRight=4;overflow=hidden;rotatable=0;points=[[0,0.5],[1,0.5]];portConstraint=eastwest;" vertex="1" parent="EtCovtEoipkpCKzj9w8A-26">
          <mxGeometry y="52" width="310" height="26" as="geometry" />
        </mxCell>
        <mxCell id="EtCovtEoipkpCKzj9w8A-30" value="Health Checks" style="swimlane;fontStyle=0;childLayout=stackLayout;horizontal=1;startSize=26;horizontalStack=0;resizeParent=1;resizeParentMax=0;resizeLast=0;collapsible=1;marginBottom=0;fontSize=14;fillColor=#FFFFFF;" vertex="1" parent="1">
          <mxGeometry x="120" y="650" width="310" height="104" as="geometry" />
        </mxCell>
        <mxCell id="EtCovtEoipkpCKzj9w8A-31" value="Item 1" style="text;strokeColor=none;fillColor=none;align=left;verticalAlign=top;spacingLeft=4;spacingRight=4;overflow=hidden;rotatable=0;points=[[0,0.5],[1,0.5]];portConstraint=eastwest;" vertex="1" parent="EtCovtEoipkpCKzj9w8A-30">
          <mxGeometry y="26" width="310" height="26" as="geometry" />
        </mxCell>
        <mxCell id="EtCovtEoipkpCKzj9w8A-32" value="Item 2" style="text;strokeColor=none;fillColor=none;align=left;verticalAlign=top;spacingLeft=4;spacingRight=4;overflow=hidden;rotatable=0;points=[[0,0.5],[1,0.5]];portConstraint=eastwest;" vertex="1" parent="EtCovtEoipkpCKzj9w8A-30">
          <mxGeometry y="52" width="310" height="26" as="geometry" />
        </mxCell>
        <mxCell id="EtCovtEoipkpCKzj9w8A-33" value="Item 3" style="text;strokeColor=none;fillColor=none;align=left;verticalAlign=top;spacingLeft=4;spacingRight=4;overflow=hidden;rotatable=0;points=[[0,0.5],[1,0.5]];portConstraint=eastwest;" vertex="1" parent="EtCovtEoipkpCKzj9w8A-30">
          <mxGeometry y="78" width="310" height="26" as="geometry" />
        </mxCell>
      </root>
    </mxGraphModel>
  </diagram>
</mxfile>
